<svg xmlns="http://www.w3.org/2000/svg" version="1.1" xmlns:xlink="http://www.w3.org/1999/xlink" xmlns:svgjs="http://svgjs.dev/svgjs" width="100%" height="100%" viewBox="0 0 1000 600"><rect width="1000" height="600" x="0" y="0" fill="#295f2d"/><g><circle r="166.66666666666666" cx="371.91433207194007" cy="394.1365648795763" fill="#ffe67c" transform="matrix(0.6090202802563833,0,0,0.6090202802563833,0,59.962830221900134)"/><path d="M364.00578667122966 384.18520109280666L425.9902206288028 469.1365604386143L405.3579255214562 469.1365604386143L351.2820516403907 396.17936416086815L335.28983421630875 410.5665232668397L335.28983421630875 469.1365604386143L317.83847286667185 469.1365604386143L317.83847286667185 319.1365648915682L335.28983421630875 319.1365648915682L335.28983421630875 393.9322825155136Q341.12640991852845 387.2785862149831 347.28399728437023 380.65407279296375Q353.441584650212 374.0295593709444 359.48244050200935 367.25913155636954L359.48244050200935 367.25913155636954L403.31512402567927 319.1365648915682L423.7139561049371 319.1365648915682L364.00578667122966 384.18520109280666Z " fill="#295f2d" transform="matrix(0.6090202802563833,0,0,0.6090202802563833,0,59.962830221900134)"/><path d="M664.7482781283402 388.4235746939453L722.2572978552121 467.24125662658366L703.1147004225857 467.24125662658366L652.9432251147263 399.55173246595297L638.105681418716 412.9001066304294L638.105681418716 467.24125662658366L621.914347239493 467.24125662658366L621.914347239493 328.07159495232696L638.105681418716 328.07159495232696L638.105681418716 397.4668951218056Q643.5208433515664 391.29361051835605 649.2338391907238 385.1474017245708Q654.946835029881 379.00119293078546 660.5515276303811 372.719605088679L660.5515276303811 372.719605088679L701.2193937460881 328.07159495232696L720.1453847014004 328.07159495232696L664.7482781283402 388.4235746939453ZM779.0623465308133 361.022855313722L779.0623465308133 361.022855313722Q792.4107206952897 361.022855313722 801.9143298874424 366.92538182052897Q811.445014889259 372.8008325176717 816.48111548681 383.4145499060586Q821.517216084361 394.0282672944455 821.517216084361 408.2159915585137L821.517216084361 408.2159915585137L821.517216084361 418.017434656973L749.4684865677857 418.017434656973Q749.7663204740925 436.40190941900033 758.620110234303 446.01382184980986Q767.4738999945134 455.62573428061944 783.5569309350792 455.62573428061944L783.5569309350792 455.62573428061944Q793.4396014625313 455.62573428061944 801.0749797878505 453.81165503311456Q808.6832823035054 451.9975757856096 816.8601768221095 448.4777205292568L816.8601768221095 448.4777205292568L816.8601768221095 462.39468669668247Q808.954040400148 465.91454195303527 801.2103588361717 467.53909053289044Q793.4396014625313 469.1365633030813 782.880035693473 469.1365633030813L782.880035693473 469.1365633030813Q767.8529613298128 469.1365633030813 756.6435761288126 463.0174303189603Q745.4612667374763 456.87122152517503 739.2879821340268 444.95786527290403Q733.0876217209129 433.0715848302973 733.0876217209129 415.85136988383283L733.0876217209129 415.85136988383283Q733.0876217209129 398.9831404630037 738.7735417504059 386.6636470657689Q744.4323859702347 374.3441536685341 754.7482694523148 367.683504491128Q765.0912287440592 361.022855313722 779.0623465308133 361.022855313722ZM778.8728158631636 373.96509233323457L778.8728158631636 373.96509233323457Q766.2284127499577 373.96509233323457 758.7013376632956 382.25029009049575Q751.1742625766335 390.50841203809273 749.7663204740925 405.3730315437672L749.7663204740925 405.3730315437672L804.9738963795028 405.3730315437672Q804.8655931408457 396.03187720960017 802.0497089357636 388.9380150775661Q799.2609005403456 381.84415294553196 793.5479047011884 377.9181605442154Q787.8349088620312 373.96509233323457 778.8728158631636 373.96509233323457ZM864.2699195442153 319.1365777631237L864.2699195442153 467.24125662658366L848.3764192712993 467.24125662658366L848.3764192712993 319.1365777631237L864.2699195442153 319.1365777631237ZM938.620092882252 467.24125662658366L920.5334520265314 467.24125662658366L880.9215424877304 362.91816199021963L897.8709993375523 362.91816199021963L920.804210123174 426.0318743175917Q923.1868813736282 432.502992827348 925.6507800530751 440.30082601065266Q928.1417545421864 448.0986591939573 929.0894078804354 452.8640016948657L929.0894078804354 452.8640016948657L929.7663031220416 452.8640016948657Q930.9034871279403 448.0986591939573 933.5569164750368 440.2466743913242Q936.2374216317978 432.394689588691 938.4305622146023 426.0318743175917L938.4305622146023 426.0318743175917L961.363773000224 362.91816199021963L978.3132298500459 362.91816199021963L938.620092882252 467.24125662658366ZM994.964852793561 362.91816199021963L1010.75004982782 362.91816199021963L1010.75004982782 467.24125662658366L994.964852793561 467.24125662658366L994.964852793561 362.91816199021963ZM1003.0605198831724 323.87484445436786L1003.0605198831724 323.87484445436786Q1006.9594364748248 323.87484445436786 1009.775320679907 326.4199705628076Q1012.5641290753251 328.938020861583 1012.5641290753251 334.2719553654407L1012.5641290753251 334.2719553654407Q1012.5641290753251 339.4975866306414 1009.775320679907 342.0697885487454Q1006.9594364748248 344.6419904668494 1003.0605198831724 344.6419904668494L1003.0605198831724 344.6419904668494Q998.9720726238704 344.6419904668494 996.237415847781 342.0697885487454Q993.5298348813556 339.4975866306414 993.5298348813556 334.2719553654407L993.5298348813556 334.2719553654407Q993.5298348813556 328.938020861583 996.237415847781 326.4199705628076Q998.9720726238704 323.87484445436786 1003.0605198831724 323.87484445436786ZM1093.5749515907678 361.022855313722L1093.5749515907678 361.022855313722Q1112.1489570204449 361.022855313722 1121.6525662125973 370.0932515512465Q1131.1832512144142 379.1907235984353 1131.1832512144142 399.28097436931046L1131.1832512144142 399.28097436931046L1131.1832512144142 467.24125662658366L1115.5605090381407 467.24125662658366L1115.5605090381407 400.3369309462163Q1115.5605090381407 387.2863906880467 1109.6038309120052 380.8152721782904Q1103.674228595534 374.3441536685341 1091.3818110079633 374.3441536685341L1091.3818110079633 374.3441536685341Q1074.053292822842 374.3441536685341 1067.0135823101364 384.14559676699344Q1059.9738717974308 393.9470398654528 1059.9738717974308 412.6022727241226L1059.9738717974308 412.6022727241226L1059.9738717974308 467.24125662658366L1044.1615989535073 467.24125662658366L1044.1615989535073 362.91816199021963L1056.9413811150346 362.91816199021963L1059.2969765558244 377.94523635387964L1060.1634024650805 377.94523635387964Q1063.4937270537835 372.4217711823722 1068.6381308899915 368.68530944870537Q1073.7825347261994 364.9217719053743 1080.1453499972988 362.97231360954817Q1086.5352410780622 361.022855313722 1093.5749515907678 361.022855313722ZM1276.2554393954779 340.3640125398975L1276.2554393954779 340.3640125398975Q1264.7211444785066 340.3640125398975 1255.5424450023252 344.31708075087835Q1246.3637455261435 348.24307315219494 1239.9197028260514 355.71599661952854Q1233.5027359356236 363.18892008686214 1230.0641081082636 373.7755616655848Q1226.6525560905677 384.3351274346432 1226.6525560905677 397.57519836046254L1226.6525560905677 397.57519836046254Q1226.6525560905677 415.06617140356957 1232.1218696427468 427.98133261341786Q1237.5911831949256 440.86941801360194 1248.5027344896193 447.90912852630754Q1259.3872099746488 454.94883903901314 1275.7680748215216 454.94883903901314L1275.7680748215216 454.94883903901314Q1285.0821533460244 454.94883903901314 1293.340275293621 453.3784420784865Q1301.5713214315538 451.80804511795986 1309.3691546148584 449.4524496771699L1309.3691546148584 449.4524496771699L1309.3691546148584 463.5318707025811Q1301.7608520992035 466.3748307173276 1293.3673511032855 467.75569701020447Q1285.0009259170315 469.1365633030813 1273.4937068097242 469.1365633030813L1273.4937068097242 469.1365633030813Q1252.2662720329504 469.1365633030813 1238.024396149554 460.33692516219935Q1223.782520266157 451.53728702131735 1216.7157339437872 435.4542560807515Q1209.6218718117532 419.37122514018563 1209.6218718117532 397.4668951218056L1209.6218718117532 397.4668951218056Q1209.6218718117532 381.6546222778822 1214.0352287870262 368.57700621004835Q1218.4756615719637 355.4993901422145 1226.9774658065387 345.96870514039773Q1235.5063458507784 336.46509594824516 1247.9341424866702 331.2665404927087Q1260.3348633128976 326.0679850371723 1276.4449700631278 326.0679850371723L1276.4449700631278 326.0679850371723Q1287.004535832186 326.0679850371723 1296.8059789306456 328.179898190984Q1306.6074220291048 330.2647355351314 1314.5135584510663 334.16365212678375L1314.5135584510663 334.16365212678375L1308.04243994131 347.86401181689536Q1301.381790763904 344.8315211344991 1293.421502722614 342.58422893236616Q1285.4882904909882 340.3640125398975 1276.2554393954779 340.3640125398975ZM1419.5947757580293 328.07159495232696L1436.7337632755014 328.07159495232696L1386.7518186352916 467.24125662658366L1370.4792570270758 467.24125662658366L1320.4973123868663 328.07159495232696L1337.4467692366882 328.07159495232696L1369.9918924531194 419.75028647548515Q1371.9955023682742 425.27375164699265 1373.5658993288007 430.30985224454355Q1375.1362962893274 435.34595284209445 1376.3817835338828 440.03006791401015Q1377.6272707784383 444.6871071762615 1378.5749241166873 449.0733883418704L1378.5749241166873 449.0733883418704Q1379.522577454936 444.6871071762615 1380.7680646994918 439.9759162946816Q1381.986476134383 435.2647254131017 1383.6110247142383 430.17447319622227Q1385.2355732940932 425.0842209793429 1387.239183209248 419.4524525691784L1387.239183209248 419.4524525691784L1419.5947757580293 328.07159495232696Z " fill="#ffe67c" transform="matrix(0.6090202802563833,0,0,0.6090202802563833,0,59.962830221900134)"/></g></svg>